<svg width="125" height="24" viewBox="0 0 125 24" fill="none" xmlns="http://www.w3.org/2000/svg">
<g clip-path="url(#clip0_2001_210)">
<path d="M115.419 15.3464C115.115 14.8148 115.24 14.3878 115.795 14.0654L122.96 10.1438V10.8758L115.822 7.03268C115.258 6.71895 115.124 6.28322 115.419 5.72549C115.75 5.1939 116.197 5.07189 116.761 5.35947L124.329 9.46405C124.776 9.71677 125 10.0479 125 10.4575C125 10.9542 124.776 11.329 124.329 11.5817L116.761 15.7124C116.179 16.0087 115.732 15.8867 115.419 15.3464Z" fill="#0057FF"/>
<path d="M102.53 23.085C102.1 23.085 101.783 22.9542 101.577 22.6928C101.371 22.4314 101.322 22.0915 101.429 21.6732L106.931 0.862745C107.119 0.287582 107.486 0 108.031 0C108.461 0 108.778 0.135076 108.984 0.405229C109.199 0.666667 109.239 1.00218 109.105 1.41176L103.63 22.2222C103.469 22.7974 103.102 23.085 102.53 23.085Z" fill="#0057FF"/>
<path d="M94.4653 19.4248C93.7139 19.4248 93.3382 18.9717 93.3382 18.0653V9.98691L84.1196 19.2418H82.0128V7.97384C82.0128 7.11981 82.3886 6.69279 83.14 6.69279C83.8914 6.69279 84.2672 7.14595 84.2672 8.05227V16.2353L93.5663 6.8758H95.5925V18.1438C95.5925 18.9978 95.2168 19.4248 94.4653 19.4248Z" fill="#0057FF"/>
<path d="M66.3753 24C65.6239 24 65.2482 23.5556 65.2482 22.6667V18.2091C64.8188 18.5577 64.3268 18.8192 63.7721 18.9935C63.2175 19.159 62.6092 19.2418 61.9472 19.2418C58.6372 19.2418 56.9823 17.4641 56.9823 13.9085V12.2091C56.9823 8.65359 58.6372 6.87582 61.9472 6.87582C62.6092 6.87582 63.2175 6.96296 63.7721 7.13725C64.3268 7.30283 64.8188 7.55991 65.2482 7.9085V3.45098C65.2482 2.56209 65.6239 2.11765 66.3753 2.11765C67.1268 2.11765 67.5025 2.56209 67.5025 3.45098V7.9085C67.9319 7.55991 68.4239 7.30283 68.9785 7.13725C69.5421 6.96296 70.1504 6.87582 70.8035 6.87582C74.1134 6.87582 75.7684 8.65359 75.7684 12.2091V13.9085C75.7684 15.6688 75.3524 16.9978 74.5205 17.8954C73.6974 18.793 72.4584 19.2418 70.8035 19.2418C70.1504 19.2418 69.5421 19.159 68.9785 18.9935C68.4239 18.8192 67.9319 18.5577 67.5025 18.2091V22.6667C67.5025 23.5556 67.1268 24 66.3753 24ZM61.974 17.0458C62.7523 17.0458 63.383 16.8671 63.866 16.5098C64.3491 16.1525 64.698 15.6732 64.9127 15.0719C65.1363 14.4619 65.2482 13.7865 65.2482 13.0458C65.2482 12.2614 65.1363 11.573 64.9127 10.9804C64.6891 10.3791 64.3312 9.91285 63.8392 9.5817C63.3561 9.24183 62.7255 9.07189 61.9472 9.07189C61.3478 9.07189 60.8647 9.15033 60.498 9.30719C60.1401 9.45534 59.8673 9.66884 59.6794 9.94771C59.5005 10.2266 59.3797 10.5577 59.3171 10.9412C59.2634 11.3246 59.2366 11.7473 59.2366 12.2091V13.9085C59.2366 15.0588 59.4379 15.8693 59.8404 16.3399C60.243 16.8105 60.9542 17.0458 61.974 17.0458ZM70.884 17.0458C71.5907 17.0458 72.1319 16.9237 72.5077 16.6797C72.8923 16.427 73.1562 16.0697 73.2994 15.6078C73.4425 15.1373 73.5141 14.5708 73.5141 13.9085V12.2091C73.5141 11.0588 73.3128 10.2484 72.9102 9.77778C72.5077 9.30719 71.7965 9.07189 70.7766 9.07189C70.0073 9.07189 69.3811 9.25054 68.898 9.60784C68.415 9.96514 68.0616 10.4444 67.838 11.0458C67.6143 11.6471 67.5025 12.3137 67.5025 13.0458C67.5025 13.8649 67.6233 14.5752 67.8648 15.1765C68.1153 15.7691 68.491 16.2309 68.992 16.5621C69.4929 16.8845 70.1236 17.0458 70.884 17.0458Z" fill="#0057FF"/>
<path d="M44.3193 19.1242C42.9417 19.1242 41.819 18.9934 40.9512 18.732C40.0835 18.4619 39.4394 17.9913 39.019 17.3202C38.6074 16.6492 38.4017 15.7037 38.4017 14.4836V11.6209C38.4017 10.4096 38.6074 9.46839 39.019 8.79737C39.4394 8.12634 40.0835 7.66011 40.9512 7.39867C41.819 7.12852 42.9417 6.99345 44.3193 6.99345H45.0976C46.4663 6.99345 47.5845 7.12852 48.4523 7.39867C49.3289 7.66011 49.973 8.12634 50.3845 8.79737C50.7961 9.46839 51.0018 10.4096 51.0018 11.6209V14.4836C51.0018 15.7037 50.7961 16.6492 50.3845 17.3202C49.973 17.9913 49.3289 18.4619 48.4523 18.732C47.5845 18.9934 46.4663 19.1242 45.0976 19.1242H44.3193ZM44.3193 17.7516H45.0976C46.2695 17.7516 47.182 17.6732 47.835 17.5163C48.488 17.3507 48.9443 17.0327 49.2037 16.5621C49.4631 16.0828 49.5928 15.3856 49.5928 14.4706V11.647C49.5928 10.6797 49.4542 9.96512 49.1769 9.50325C48.8996 9.03266 48.4344 8.72765 47.7813 8.58822C47.1283 8.44007 46.2337 8.366 45.0976 8.366H44.3193C43.1653 8.366 42.2573 8.44007 41.5953 8.58822C40.9423 8.72765 40.4816 9.03266 40.2132 9.50325C39.9448 9.97384 39.8107 10.6884 39.8107 11.647V14.4706C39.8107 15.3943 39.9404 16.0915 40.1998 16.5621C40.4592 17.0327 40.9155 17.3507 41.5685 17.5163C42.2305 17.6732 43.1474 17.7516 44.3193 17.7516Z" fill="#222222"/>
<path d="M23.7208 19.085C21.7796 19.085 20.3617 18.6492 19.4671 17.7778C18.5725 16.9063 18.1252 15.5251 18.1252 13.634V7.68627C18.1252 5.77778 18.568 4.39216 19.4537 3.52941C20.3482 2.66667 21.7617 2.23529 23.694 2.23529H26.9413C28.5873 2.23529 29.8129 2.57081 30.618 3.24183C31.4231 3.90414 31.8659 4.97168 31.9464 6.44444C31.9733 6.67974 31.9241 6.85839 31.7988 6.98039C31.6825 7.1024 31.5081 7.1634 31.2755 7.1634C30.8282 7.1634 30.5822 6.93246 30.5375 6.47059C30.4748 5.38998 30.1707 4.64488 29.625 4.23529C29.0793 3.81699 28.1847 3.60784 26.9413 3.60784H23.694C22.6652 3.60784 21.8467 3.73856 21.2383 4C20.63 4.25272 20.1917 4.67974 19.9233 5.28105C19.6639 5.87364 19.5342 6.67538 19.5342 7.68627V13.634C19.5342 14.6449 19.6684 15.4466 19.9367 16.0392C20.2051 16.6318 20.6434 17.0588 21.2518 17.3203C21.8601 17.5817 22.6831 17.7124 23.7208 17.7124H26.9413C28.1847 17.7124 29.0793 17.5076 29.625 17.098C30.1707 16.6797 30.4748 15.9303 30.5375 14.8497C30.5822 14.3878 30.8282 14.1569 31.2755 14.1569C31.5081 14.1569 31.6825 14.2222 31.7988 14.3529C31.9241 14.4749 31.9733 14.6492 31.9464 14.8758C31.8659 16.3486 31.4231 17.4205 30.618 18.0915C29.8129 18.7538 28.5873 19.085 26.9413 19.085H23.7208Z" fill="#222222"/>
<path d="M9.58091 15.3464C9.26781 15.8867 8.82052 16.0087 8.23905 15.7124L0.670932 11.5817C0.223644 11.329 0 10.9542 0 10.4575C0 10.0479 0.223644 9.71677 0.670932 9.46405L8.23905 5.35947C8.80263 5.07189 9.24992 5.1939 9.58091 5.72549C9.87612 6.28322 9.74194 6.71895 9.17835 7.03268L2.03963 10.8758V10.1438L9.20519 14.0654C9.75983 14.3878 9.88507 14.8148 9.58091 15.3464Z" fill="#222222"/>
</g>
<defs>
<clipPath id="clip0_2001_210">
<rect width="125" height="24" fill="white"/>
</clipPath>
</defs>
</svg>
